<?xml version="1.0" encoding="UTF-8" standalone="no"?>
<svg
   xmlns:dc="http://purl.org/dc/elements/1.1/"
   xmlns:cc="http://creativecommons.org/ns#"
   xmlns:rdf="http://www.w3.org/1999/02/22-rdf-syntax-ns#"
   xmlns:svg="http://www.w3.org/2000/svg"
   xmlns="http://www.w3.org/2000/svg"
   viewBox="0 0 354.28 568.78668"
   height="568.78668"
   width="354.28"
   xml:space="preserve"
   id="svg2"
   version="1.1"><metadata
     id="metadata8"><rdf:RDF><cc:Work
         rdf:about=""><dc:format>image/svg+xml</dc:format><dc:type
           rdf:resource="http://purl.org/dc/dcmitype/StillImage" /></cc:Work></rdf:RDF></metadata><defs
     id="defs6" /><g
     transform="matrix(1.3333333,0,0,-1.3333333,0,568.78667)"
     id="g10"><g
       transform="scale(0.1)"
       id="g12"><path
         id="path14"
         style="fill:#ffffff;fill-opacity:1;fill-rule:nonzero;stroke:none"
         d="M 2656.06,13.6992 H 1.01953 V 4264.99 H 2656.06 V 13.6992" /><path
         id="path16"
         style="fill:#006e9e;fill-opacity:1;fill-rule:nonzero;stroke:none"
         d="M 2649.33,1190.84 H 3.19531 V 2694.88 H 2649.33 V 1190.84" /><path
         id="path18"
         style="fill:#bcbbc4;fill-opacity:1;fill-rule:nonzero;stroke:none"
         d="M 90.4961,1190.84 H 3.19531 V 2694.88 H 964.316 L 90.4961,1190.84" /><path
         id="path20"
         style="fill:#231f20;fill-opacity:1;fill-rule:nonzero;stroke:none"
         d="m 406.422,4092.53 c -5.875,28.71 -22.84,39.12 -39.809,39.12 h -0.679 v -78.02 c 0,-68.79 0.453,-71.71 4.054,-75.54 2.95,-2.98 7.242,-4.34 15.176,-4.53 v -4.76 h -82.582 v 4.76 c 7.922,0.19 12.227,1.55 15.176,4.53 3.617,3.83 4.082,6.75 4.082,75.54 v 78.02 h -0.684 c -16.965,0 -33.929,-10.41 -39.801,-39.12 h -4.769 v 47.04 h 134.59 v -47.04 h -4.754" /><path
         id="path22"
         style="fill:#231f20;fill-opacity:1;fill-rule:nonzero;stroke:none"
         d="m 509.328,3968.8 v 4.76 c 7.258,0.19 9.703,1.77 11.766,3.82 4.054,4.07 4.519,7.95 4.519,72.86 H 478.34 c 0,-64.91 0.449,-68.79 4.535,-72.86 2.008,-2.05 4.516,-3.63 11.758,-3.82 v -4.76 h -76.684 v 4.76 c 7.239,0.19 9.727,1.77 11.762,3.82 4.059,4.07 4.535,8.14 4.535,76.9 0,68.8 -0.476,72.62 -4.535,76.72 -2.035,2.02 -4.523,3.61 -11.762,3.82 v 4.75 h 76.684 v -4.75 c -7.242,-0.21 -9.75,-1.8 -11.758,-3.82 -3.828,-3.89 -4.535,-7.46 -4.535,-69.7 h 47.273 c 0,62.24 -0.668,65.81 -4.519,69.7 -2.063,2.02 -4.508,3.61 -11.766,3.82 v 4.75 H 586 v -4.75 c -7.223,-0.21 -9.723,-1.8 -11.742,-3.82 -4.086,-4.1 -4.535,-7.92 -4.535,-76.72 0,-68.76 0.449,-72.83 4.535,-76.9 2.019,-2.05 4.519,-3.63 11.742,-3.82 v -4.76 h -76.672" /><path
         id="path24"
         style="fill:#231f20;fill-opacity:1;fill-rule:nonzero;stroke:none"
         d="M 719.238,3968.8 H 595.063 v 4.76 c 7.21,0.19 9.707,1.77 11.742,3.82 4.086,4.07 4.523,8.14 4.523,76.9 0,68.8 -0.437,72.62 -4.523,76.72 -2.035,2.02 -4.532,3.61 -11.742,3.82 v 4.75 h 121.91 l 0.668,-47.04 h -4.75 c -4.977,23.06 -15.18,37.97 -38.907,37.97 h -18.558 v -69.2 h 8.844 c 19.89,0 29.617,5 32.32,23.99 h 4.769 v -60.84 h -4.769 c -2.703,18.8 -12.43,25.79 -32.32,25.79 h -8.844 c 0,0 0.242,-36.66 0.242,-42.94 0,-20.44 3.617,-29.21 23.727,-29.21 21.496,0 32.371,14.27 37.781,39.12 h 4.765 l -2.703,-48.41" /><path
         id="path26"
         style="fill:#231f20;fill-opacity:1;fill-rule:nonzero;stroke:none"
         d="m 826.195,3966.54 c -16.738,0 -31.461,5.87 -37.988,5.87 -3.402,0 -6.324,-1.09 -9.961,-3.61 h -4.098 v 48.41 h 4.766 c 3.418,-26.25 18.785,-41.6 44.344,-41.6 21.277,0 28.039,13.3 28.039,25.07 0,39.62 -78.024,35.96 -78.024,89.12 0,26.5 15.618,52.07 54.297,52.07 14.235,0 28.469,-5.22 34.383,-5.22 4.059,0 6.313,0.69 8.606,2.92 h 3.824 v -47.04 h -4.766 c -4.726,18.33 -16.051,40.27 -42.273,40.27 -17.203,0 -24.879,-9.72 -24.879,-20.35 0,-35.08 83.012,-32.84 83.012,-92.53 0,-30.76 -24.668,-53.38 -59.282,-53.38" /><path
         id="path28"
         style="fill:#231f20;fill-opacity:1;fill-rule:nonzero;stroke:none"
         d="m 1028.63,4109.28 v -72.64 c 0,-41.4 -14.91,-70.1 -61.739,-70.1 -44.344,0 -62.891,25.35 -62.891,53.16 v 61.3 c 0,34.59 -1.598,47.07 -4.523,50 -2.051,2.02 -4.508,3.61 -11.774,3.82 v 4.75 h 76.688 v -4.75 c -7.231,-0.21 -9.731,-1.8 -11.766,-3.82 -3.152,-3.17 -4.52,-15.2 -4.52,-51.58 v -66.72 c 0,-21.96 11.543,-32.34 30.981,-32.34 23.984,0 36.664,18.08 36.664,55.18 v 73.74 c 0,18.11 -1.82,23.3 -17.871,25.54 v 4.75 h 48.631 v -4.75 c -16.05,-2.24 -17.88,-7.43 -17.88,-25.54" /><path
         id="path30"
         style="fill:#231f20;fill-opacity:1;fill-rule:nonzero;stroke:none"
         d="M 1192.84,4109.28 V 3968.8 h -23.75 l -87.98,121.49 v -91.19 c 0,-18.08 1.78,-23.3 17.85,-25.54 v -4.76 h -48.62 v 4.76 c 16.07,2.24 17.86,7.46 17.86,25.54 v 55.18 c 0,68.8 -0.44,72.62 -4.52,76.72 -2.02,2.02 -4.54,3.61 -11.76,3.82 v 4.75 h 56.1 l 71.94,-100.91 v 70.62 c 0,18.11 -1.82,23.3 -17.91,25.54 v 4.75 h 48.66 v -4.75 c -16.08,-2.24 -17.87,-7.43 -17.87,-25.54" /><path
         id="path32"
         style="fill:#231f20;fill-opacity:1;fill-rule:nonzero;stroke:none"
         d="m 1290.08,4130.5 h -9.95 v -125.28 c 0,-16.94 2.96,-27.13 22.38,-27.13 22.41,0 29.66,28.71 29.66,76.68 0,42.05 -10.19,75.73 -42.09,75.73 z m 9.51,-161.7 h -79.85 v 4.76 c 7.24,0.19 9.74,1.77 11.76,3.82 4.07,4.07 4.54,8.14 4.54,76.9 0,68.8 -0.47,72.62 -4.54,76.72 -2.02,2.02 -4.52,3.61 -11.76,3.82 v 4.75 h 76.03 c 53.13,0 82.31,-31.44 82.31,-85.5 0,-48.19 -17.21,-85.27 -78.49,-85.27" /><path
         id="path34"
         style="fill:#231f20;fill-opacity:1;fill-rule:nonzero;stroke:none"
         d="m 1435.97,4090.04 -17.65,-55.18 h 36.63 z m 13.15,-121.24 v 4.76 c 13.78,1.33 20.78,4.53 20.78,12.42 0,2.93 -2.27,11.54 -11.31,37.82 h -43.87 c -6.81,-21.09 -9.98,-33.28 -9.98,-35.79 0,-9.05 5.66,-14.26 15.85,-14.26 v -4.95 h -54.98 v 4.76 c 16.98,3.38 20.12,6.3 29.19,33.24 l 44.09,132.77 h 29.62 l 48.9,-141.84 c 5.65,-16.28 9.01,-23.03 21,-24.17 v -4.76 h -89.29" /><path
         id="path36"
         style="fill:#231f20;fill-opacity:1;fill-rule:nonzero;stroke:none"
         d="m 1640.21,4107.01 -29.4,-62.01 c 0,-59.91 0.66,-63.77 4.51,-67.62 2.05,-2.05 5.19,-3.63 14.69,-3.82 v -4.76 h -82.56 v 4.76 c 9.73,0.19 12.71,1.77 14.71,3.82 3.88,3.85 4.56,7.71 4.56,67.62 l -30.79,59.28 c -14.7,28.52 -15.85,29.18 -28.96,30.54 v 4.75 h 80.73 v -4.75 c -10.17,-0.46 -14.21,-2.95 -14.21,-9.04 0,-2.7 1.12,-5.88 8.17,-19.89 l 22.82,-45.93 19.22,40.47 c 6.1,12.92 9.49,20.59 9.49,25.16 0,4.7 -2.93,8.77 -12.68,9.23 v 4.75 h 46.6 v -4.75 c -13.54,-1.8 -15.56,-4.32 -26.9,-27.81" /><path
         id="path38"
         style="fill:#231f20;fill-opacity:1;fill-rule:nonzero;stroke:none"
         d="m 1831.33,4092.53 c -5.87,28.71 -22.84,39.12 -39.8,39.12 h -0.69 v -78.02 c 0,-68.79 0.47,-71.71 4.08,-75.54 2.92,-2.98 7.21,-4.34 15.16,-4.53 v -4.76 h -82.56 v 4.76 c 7.89,0.19 12.16,1.55 15.13,4.53 3.63,3.83 4.07,6.75 4.07,75.54 v 78.02 h -0.68 c -16.96,0 -33.93,-10.41 -39.81,-39.12 h -4.77 v 47.04 h 134.63 v -47.04 h -4.76" /><path
         id="path40"
         style="fill:#231f20;fill-opacity:1;fill-rule:nonzero;stroke:none"
         d="m 1842.84,3968.8 v 4.76 c 7.26,0.19 9.72,1.77 11.77,3.82 4.07,4.07 4.51,8.14 4.51,76.9 0,68.8 -0.44,72.62 -4.51,76.72 -2.05,2.02 -4.51,3.61 -11.77,3.82 v 4.75 h 76.7 v -4.75 c -7.23,-0.21 -9.72,-1.8 -11.79,-3.82 -4.03,-4.1 -4.48,-7.92 -4.48,-76.72 0,-68.76 0.45,-72.83 4.48,-76.9 2.07,-2.05 4.56,-3.63 11.79,-3.82 v -4.76 h -76.7" /><path
         id="path42"
         style="fill:#231f20;fill-opacity:1;fill-rule:nonzero;stroke:none"
         d="m 2044.61,3968.8 v 4.76 c 7.27,0.19 9.76,1.77 11.78,3.82 4.04,4.07 4.5,8.14 4.5,76.9 v 45.95 l -44.77,-131.68 h -14.02 l -46.14,131.68 V 3999.1 c 0,-18.08 1.81,-23.3 17.84,-25.54 v -4.76 h -45.21 v 4.76 c 14.21,2.05 16.26,7.46 16.26,25.54 v 55.18 c 0,68.8 -0.44,72.62 -4.48,76.72 -2.06,2.02 -4.55,3.61 -11.78,3.82 v 4.75 h 63.54 l 34.84,-103.84 35.97,103.84 h 58.36 v -4.75 c -7.24,-0.21 -9.73,-1.8 -11.77,-3.82 -4.08,-4.1 -4.52,-7.92 -4.52,-76.72 0,-68.76 0.44,-72.83 4.52,-76.9 2.04,-2.05 4.53,-3.63 11.77,-3.82 v -4.76 h -76.69" /><path
         id="path44"
         style="fill:#231f20;fill-opacity:1;fill-rule:nonzero;stroke:none"
         d="m 2254.51,3968.8 h -124.17 v 4.76 c 7.21,0.19 9.7,1.77 11.74,3.82 4.11,4.07 4.54,8.14 4.54,76.9 0,68.8 -0.43,72.62 -4.54,76.72 -2.04,2.02 -4.53,3.61 -11.74,3.82 v 4.75 h 121.93 l 0.65,-47.04 h -4.75 c -4.97,23.06 -15.17,37.97 -38.91,37.97 h -18.54 v -69.2 h 8.84 c 19.87,0 29.62,5 32.33,23.99 h 4.74 v -60.84 h -4.74 c -2.71,18.8 -12.46,25.79 -32.33,25.79 h -8.84 c 0,0 0.21,-36.66 0.21,-42.94 0,-20.44 3.63,-29.21 23.77,-29.21 21.5,0 32.34,14.27 37.78,39.12 h 4.73 l -2.7,-48.41" /><path
         id="path46"
         style="fill:#231f20;fill-opacity:1;fill-rule:nonzero;stroke:none"
         d="m 2319.19,3966.54 c -16.74,0 -31.43,5.87 -37.99,5.87 -3.36,0 -6.34,-1.09 -9.95,-3.61 h -4.1 l 2.71,48.41 h 4.81 c 1.75,-25.82 16.01,-41.6 41.57,-41.6 21.29,0 28.04,13.3 28.04,25.07 0,39.62 -78.06,35.96 -78.06,89.12 0,26.5 15.66,52.07 54.34,52.07 14.24,0 28.47,-5.22 34.37,-5.22 4.07,0 6.31,0.69 8.58,2.92 h 3.85 v -47.04 h -4.76 c -4.72,18.33 -16.05,40.27 -42.25,40.27 -17.24,0 -24.92,-9.72 -24.92,-20.35 0,-35.08 83.05,-32.84 83.05,-92.53 0,-30.76 -24.7,-53.38 -59.29,-53.38" /><path
         id="path48"
         style="fill:#ffffff;fill-opacity:1;fill-rule:nonzero;stroke:none"
         d="m 1921.99,2023.94 v 159.81 c 0,64.41 44.97,113.82 121.78,113.82 12.07,0 23.17,-1.38 33.5,-3.76 l 100.53,174.73 c -43.7,13.35 -90.37,19.67 -136.65,19.67 -169.27,0 -343.57,-84.93 -354.27,-289.71 l 235.05,-174.66 0.06,0.1" /><path
         id="path50"
         style="fill:#ffffff;fill-opacity:1;fill-rule:nonzero;stroke:none"
         d="m 2161.58,1787.34 c 0,-60.36 -38.41,-120.71 -117.81,-120.71 -75.84,0 -116.65,48.41 -121.3,105.44 l -236.14,175.52 v -167.13 c 0,-223.53 187.96,-303.1 357.44,-303.1 168.13,0 353.46,91.89 353.46,305.84 v 392.31 c 0,74.03 -20,133.27 -52.95,179.47 l -182.7,-318.05 v -249.59" /><path
         id="path52"
         style="fill:#ffffff;fill-opacity:1;fill-rule:nonzero;stroke:none"
         d="m 1255.27,1477.48 c 166.15,2.63 346.1,94.87 346.1,305.72 v 227.57 l -9.73,7.23 -336.37,-540.52" /><path
         id="path54"
         style="fill:#ffffff;fill-opacity:1;fill-rule:nonzero;stroke:none"
         d="m 1157.32,1701.23 c -20.72,21.47 -31.19,50.84 -31.19,81.97 v 400.55 c 0,64.41 44.99,113.82 121.77,113.82 75.45,0 117.82,-49.41 117.82,-111.11 v -149.89 l 170.27,274.03 52.51,-39.01 c -44.31,153.4 -196.09,216.62 -343.23,216.62 -174.75,0 -354.801,-90.53 -354.801,-309.97 v -360.78 l 218.301,-194.36 48.55,78.13" /><path
         id="path56"
         style="fill:#ffffff;fill-opacity:1;fill-rule:nonzero;stroke:none"
         d="m 664.773,2481.24 h -95.605 l -316.859,-62.44 14.234,-161.85 177.246,15.34 V 1663.16 H 258.371 v -163.88 h 281.594 l 124.808,198.83 v 783.13" /><path
         id="path58"
         style="fill:#ffffff;fill-opacity:1;fill-rule:nonzero;stroke:none"
         d="m 834.496,1499.28 v 89.67 l -56.277,-89.67 z" /><path
         id="path60"
         style="fill:#d82d2b;fill-opacity:1;fill-rule:nonzero;stroke:none"
         d="m 359.699,1212.15 h 238.293 l 180.227,287.13 H 539.965 L 359.699,1212.15" /><path
         id="path62"
         style="fill:#d82d2b;fill-opacity:1;fill-rule:nonzero;stroke:none"
         d="m 1686.88,2198.5 -98.38,73.09 c 8.33,-28.81 12.87,-60.77 12.87,-96.08 v -164.74 l 84.96,-63.18 v 230.65 c 0,6.88 0.17,13.62 0.55,20.26" /><path
         id="path64"
         style="fill:#d82d2b;fill-opacity:1;fill-rule:nonzero;stroke:none"
         d="m 1921.99,1783.2 c 0,-3.73 0.16,-7.46 0.48,-11.13 l 60.93,-45.32 178.18,310.18 v 149.53 c 0,51.87 -30,94.87 -84.31,107.35 L 1921.99,2023.94 V 1783.2" /><path
         id="path66"
         style="fill:#d82d2b;fill-opacity:1;fill-rule:nonzero;stroke:none"
         d="m 2588.79,2536.61 -49.23,354.49 -333.07,-130.98 104.03,-60.92 -132.72,-230.66 c 66.72,-20.35 126.28,-57.22 166.48,-113.56 l 139.49,242.81 105.02,-61.18" /><path
         id="path68"
         style="fill:#d82d2b;fill-opacity:1;fill-rule:nonzero;stroke:none"
         d="m 890.469,1780.46 v 37 l -96.727,86.11 -128.969,-205.46 v -34.95 h 169.723 v -74.21 l 3.688,5.87 315.016,-281.31 102.07,163.97 c -2.45,-0.03 -4.91,-0.12 -7.37,-0.12 -169.44,0 -357.431,79.57 -357.431,303.1" /><path
         id="path70"
         style="fill:#d82d2b;fill-opacity:1;fill-rule:nonzero;stroke:none"
         d="m 1247.9,1666.63 c 79.42,0 117.82,60.35 117.82,120.71 v 249.23 l -208.4,-335.34 c 20.35,-21.1 50.58,-34.6 90.58,-34.6" /><path
         id="path72"
         style="fill:#ea8a74;fill-opacity:1;fill-rule:nonzero;stroke:none"
         d="m 1921.99,1783.2 v 240.74 l -0.06,-0.1 -235.05,174.66 c -0.38,-6.64 -0.55,-13.38 -0.55,-20.26 v -230.65 l 236.14,-175.52 c -0.32,3.67 -0.48,7.4 -0.48,11.13" /><path
         id="path74"
         style="fill:#ea8a74;fill-opacity:1;fill-rule:nonzero;stroke:none"
         d="m 2177.8,2468.54 -100.53,-174.73 c 54.31,-12.48 84.31,-55.48 84.31,-107.35 v -149.53 l 182.7,318.05 c -40.2,56.34 -99.76,93.21 -166.48,113.56" /><path
         id="path76"
         style="fill:#ea8a74;fill-opacity:1;fill-rule:nonzero;stroke:none"
         d="m 1588.5,2271.59 -52.51,39.01 -170.27,-274.03 v -249.23 c 0,-60.36 -38.4,-120.71 -117.82,-120.71 -40,0 -70.23,13.5 -90.58,34.6 l -48.55,-78.13 -218.301,194.36 v -37 c 0,-223.53 187.991,-303.1 357.431,-303.1 2.46,0 4.92,0.09 7.37,0.12 l 336.37,540.52 9.73,-7.23 v 164.74 c 0,35.31 -4.54,67.27 -12.87,96.08" /><path
         id="path78"
         style="fill:#ea8a74;fill-opacity:1;fill-rule:nonzero;stroke:none"
         d="m 664.773,1663.16 v 34.95 L 539.965,1499.28 h 238.254 l 56.277,89.67 v 74.21 H 664.773" /><path
         id="path80"
         style="fill:#d82d2b;fill-opacity:1;fill-rule:nonzero;stroke:none"
         d="M 2654.81,1289.91 H 8.69531 V 905.738 H 2654.81 v 384.172" /><path
         id="path82"
         style="fill:none;stroke:#231f20;stroke-width:13.98999977;stroke-linecap:butt;stroke-linejoin:miter;stroke-miterlimit:4;stroke-dasharray:none;stroke-opacity:1"
         d="M 2650.08,6.99219 H 6.99609 V 4258.95 H 2650.08 Z" /><path
         id="path84"
         style="fill:#ffffff;fill-opacity:1;fill-rule:nonzero;stroke:none"
         d="m 871.809,961.691 v 40.769 c 0,0 78.425,87.33 81.527,93.17 20.574,23.68 35.324,41.14 35.324,63.66 0,16.69 -5.824,32.22 -31.055,32.22 -21.738,0 -30.667,-13.97 -30.667,-33.38 v -7.77 h -62.887 v 13.19 c 0,52.81 41.535,79.2 98.605,79.2 60.944,0 92.394,-34.94 92.394,-81.91 0,-47.36 -40.76,-83.47 -70.655,-115.29 l -26.79,-28.73 v -0.78 h 99.765 V 961.691 H 871.809" /><path
         id="path86"
         style="fill:#ffffff;fill-opacity:1;fill-rule:nonzero;stroke:none"
         d="m 1248.19,1157.73 c 0,17.48 -12.42,31.44 -34.55,31.44 -22.51,0 -35.71,-13.96 -35.71,-32.21 V 1043.6 c 0,-17.46 12.02,-32.99 35.71,-32.99 23.29,0 34.55,17.08 34.55,34.16 z m -34.55,-200.691 c -49.69,0 -104.81,22.512 -104.81,85.781 v 112.59 c 0,62.11 52.79,87.72 104.04,87.72 51.25,0 104.42,-25.22 104.42,-88.51 V 1043.6 c 0,-60.549 -54.34,-86.561 -103.65,-86.561" /><path
         id="path88"
         style="fill:#ffffff;fill-opacity:1;fill-rule:nonzero;stroke:none"
         d="m 1371.36,961.691 v 46.589 h 53.57 v 173.14 l -52.41,-3.49 v 46.58 l 90.07,16.3 h 27.17 v -232.53 h 49.69 v -46.589 h -168.09" /><path
         id="path90"
         style="fill:#ffffff;fill-opacity:1;fill-rule:nonzero;stroke:none"
         d="m 1687.79,1197.12 c -22.22,0 -34.12,-17.26 -34.12,-37.99 0,-22.19 9.21,-42.54 34.12,-42.54 23.4,0 34.91,18.79 34.91,39.49 0,21.87 -11.91,41.04 -34.91,41.04 z m -80.89,-165.98 c 11.51,-7.68 30.28,-14.18 56.36,-14.18 47.53,0 62.11,31.41 62.48,78.56 h -0.77 c -12.64,-18.01 -31.07,-27.21 -57.89,-27.21 -49.08,0 -80.1,36.43 -80.1,84.36 0,49.43 41.37,90.46 100.45,90.46 76.26,0 102.71,-59.79 102.71,-126.94 0,-81.98 -29.5,-149.799 -118.08,-149.799 -27.2,0 -49.06,4.179 -69.37,12.23 l 4.21,52.519" /><path
         id="path92"
         style="fill:#231f20;fill-opacity:1;fill-rule:nonzero;stroke:none"
         d="M 904.438,147.781 H 869.754 V 254.012 H 724.453 V 147.781 H 689.77 v 244.028 h 34.683 V 285.488 h 145.301 v 106.321 h 34.684 V 147.781" /><path
         id="path94"
         style="fill:#231f20;fill-opacity:1;fill-rule:nonzero;stroke:none"
         d="m 993.816,147.781 h -34.695 v 244.028 h 34.695 V 147.781" /><path
         id="path96"
         style="fill:#231f20;fill-opacity:1;fill-rule:nonzero;stroke:none"
         d="m 1183.52,346.238 c -19.52,16.66 -43.32,20.094 -59.78,20.094 -24.82,0 -46.6,-11.023 -46.6,-31.801 0,-46.89 124.73,-46.992 124.73,-124.652 0,-50.578 -51.61,-67.348 -91.37,-65.328 -27,1.379 -47.23,6.597 -68.66,20.738 v 34.723 c 21.36,-13.832 41.2,-21.153 63.89,-22.981 25.43,-2.043 61.86,3.957 61.86,34 0,50.438 -125.75,51.93 -125.75,118.86 0,39.699 35.19,65.148 77.96,65.148 27.64,0 46.07,-5.969 63.63,-15.98 l 0.09,-32.821" /><path
         id="path98"
         style="fill:#231f20;fill-opacity:1;fill-rule:nonzero;stroke:none"
         d="m 1595.8,176.738 c 54.77,0 95.2,39.703 95.2,93.051 0,53.652 -40.43,93 -95.2,93 -54.38,0 -94.8,-39.348 -94.8,-93 0,-53.348 40.42,-93.051 94.8,-93.051 z m 0,218.282 c 80.53,0 131.33,-57.282 131.33,-125.231 0,-65.848 -49.37,-125.238 -132.03,-125.238 -79.78,0 -130.23,59.008 -130.23,125.238 0,67.609 51.88,125.231 130.93,125.231" /><path
         id="path100"
         style="fill:#231f20;fill-opacity:1;fill-rule:nonzero;stroke:none"
         d="m 1432.78,209.449 c -17.1,-20.269 -43.25,-32.711 -73.9,-32.711 -54.37,0 -94.82,39.703 -94.82,93.051 0,53.652 40.45,93 94.82,93 29.81,0 55.37,-11.648 72.47,-30.93 l 18.31,30.813 c -22.47,20.039 -53.43,32.348 -90.78,32.348 -79.08,0 -130.96,-57.622 -130.96,-125.231 0,-66.23 50.44,-125.238 130.26,-125.238 39.03,0 70.66,13.238 93.16,34.179 l -18.56,30.719" /><path
         id="path102"
         style="fill:#231f20;fill-opacity:1;fill-rule:nonzero;stroke:none"
         d="m 1863.18,274.051 104.13,-126.27 h -42.24 l -83,100.899 -84.09,-100.899 h -42.58 l 105.2,126.27 -97.68,117.758 h 42.57 l 76.58,-93.047 76.22,93.047 h 42.19 l -97.3,-117.758" /><path
         id="path104"
         style="fill:#ed192d;fill-opacity:1;fill-rule:nonzero;stroke:none"
         d="m 1299.55,482.801 c -5.06,-6.84 -14.38,-10.981 -24.34,-10.949 -0.86,-0.063 -1.51,-0.032 -1.92,0.039 -0.63,0 -1,0.031 -1,0.031 0.27,-0.031 0.56,0 0.86,-0.031 -0.27,0.031 -0.39,0.031 -0.39,0.031 8.04,4.09 12.15,9.367 14.25,20.359 1.37,7.11 1.23,16.418 -0.85,23.77 -2.1,6.801 -4.39,18.269 -20.01,23.629 -16.87,5.761 -26.32,-7.141 -26.74,-10.879 -0.41,-3.77 -0.72,-14.231 7.4,-16.43 0.24,0.02 0.37,0.051 0.37,0.051 0,0 -0.11,-0.113 -0.29,-0.262 0,-0.031 -0.01,-0.058 -0.05,-0.058 -2.47,-2.172 -19.41,-15.813 -42.65,1.789 -13.84,10.449 -24.12,49.089 9.65,69.609 39.09,23.789 69.76,-10.789 74.64,-16.379 13.43,-15.281 17.75,-29.812 19.51,-42.711 2.29,-16.691 -1.74,-32.512 -8.44,-41.609" /><path
         id="path106"
         style="fill:#ed192d;fill-opacity:1;fill-rule:nonzero;stroke:none"
         d="m 1442.54,583.5 c -39.13,23.789 -69.76,-10.789 -74.65,-16.379 -13.42,-15.281 -17.75,-29.812 -19.53,-42.711 -2.29,-16.691 1.75,-32.512 8.44,-41.609 5.06,-6.84 14.4,-10.981 24.37,-10.949 0.83,-0.063 1.48,-0.032 1.89,0.039 0.63,0 1,0.031 1,0.031 -0.27,-0.031 -0.54,0 -0.84,-0.031 0.25,0.031 0.37,0.031 0.37,0.031 -8.05,4.09 -12.14,9.367 -14.25,20.359 -1.35,7.11 -1.23,16.418 0.86,23.77 2.09,6.801 4.38,18.269 20,23.629 16.89,5.761 26.33,-7.141 26.74,-10.879 0.43,-3.77 0.74,-14.231 -7.4,-16.43 -0.22,0.02 -0.34,0.051 -0.34,0.051 0,0 0.09,-0.113 0.28,-0.262 0.02,-0.031 0.03,-0.058 0.03,-0.058 2.48,-2.172 19.44,-15.813 42.67,1.789 13.83,10.449 24.09,49.089 -9.64,69.609" /><path
         id="path108"
         style="fill:#ed192d;fill-opacity:1;fill-rule:nonzero;stroke:none"
         d="m 1362.72,720.031 c -24.88,39.309 -34.54,46.231 -34.54,46.231 0,0 -9.65,-6.922 -34.55,-46.231 -24.9,-39.301 -10.65,-77.621 -7.37,-88.109 3.28,-10.473 19.06,-48.25 25.72,-63.274 10.32,-23.238 16.2,-66.046 16.2,-66.046 0,0 5.89,42.808 16.2,66.046 6.68,15.024 22.44,52.801 25.73,63.274 3.25,10.488 17.53,48.808 -7.39,88.109" /><path
         id="path110"
         style="fill:#bcbbc4;fill-opacity:1;fill-rule:nonzero;stroke:none"
         d="m 972.137,3708.54 h -68.164 v -341.08 h -86.821 v 341.08 h -68.168 v 64.27 h 223.153 v -64.27" /><path
         id="path112"
         style="fill:#bcbbc4;fill-opacity:1;fill-rule:nonzero;stroke:none"
         d="m 1116.91,3708.54 v -104.81 h 106.11 v -64.27 h -106.11 v -107.72 h 128.61 v -64.28 h -215.43 v 405.35 h 215.43 v -64.27 h -128.61" /><path
         id="path114"
         style="fill:#bcbbc4;fill-opacity:1;fill-rule:nonzero;stroke:none"
         d="m 1549.79,3512.24 v -52.69 c 0,-55.02 -45.04,-96.14 -125.41,-96.14 -80.38,0 -126.05,41.12 -126.05,96.14 v 221.2 c 0,55 45.67,96.11 126.05,96.11 80.37,0 125.41,-41.11 125.41,-96.11 v -52.7 h -83.62 v 52.7 c 0,18.53 -18,30.68 -41.79,30.68 -23.79,0 -39.22,-12.15 -39.22,-30.68 v -221.2 c 0,-21.43 15.43,-30.7 39.22,-30.7 23.79,0 41.79,9.27 41.79,30.7 v 52.69 h 83.62" /><path
         id="path116"
         style="fill:#bcbbc4;fill-opacity:1;fill-rule:nonzero;stroke:none"
         d="m 1869.43,3772.81 v -405.35 h -86.82 v 172 h -81 v -172 h -86.82 v 405.35 h 86.82 v -169.08 h 81 v 169.08 h 86.82" /><path
         id="path118"
         style="fill:#006e9e;fill-opacity:1;fill-rule:nonzero;stroke:none"
         d="m 800.41,3191.16 h -68.172 v -341.07 h -86.82 v 341.07 h -68.164 v 64.28 H 800.41 v -64.28" /><path
         id="path120"
         style="fill:#006e9e;fill-opacity:1;fill-rule:nonzero;stroke:none"
         d="m 945.184,3191.16 v -113.49 h 43.722 c 25.074,0 30.864,12.15 30.864,27.79 v 57.91 c 0,12.74 -5.79,27.79 -30.864,27.79 z m 169.106,-341.07 h -86.79 l -12.87,129.14 c -3.87,27.22 -16.735,34.74 -39.239,34.74 h -30.207 v -163.88 h -86.821 v 405.35 h 136.332 c 81.035,0 111.895,-39.96 111.895,-89.17 v -44.01 c 0,-36.49 -14.8,-63.71 -49.52,-76.44 22.51,-10.42 36.65,-30.12 41.16,-62.55 l 16.06,-133.18" /><path
         id="path122"
         style="fill:#006e9e;fill-opacity:1;fill-rule:nonzero;stroke:none"
         d="m 1316.94,3008.18 -25.07,125.08 -25.08,-125.08 z m 13.51,-64.27 h -76.52 l -19.31,-93.82 h -88.73 l 104.82,408.24 h 86.82 l 101.59,-408.24 h -90.01 l -18.66,93.82" /><path
         id="path124"
         style="fill:#006e9e;fill-opacity:1;fill-rule:nonzero;stroke:none"
         d="m 1727.9,2994.87 v -52.7 c 0,-55.02 -45.03,-96.13 -125.41,-96.13 -80.37,0 -126.03,41.11 -126.03,96.13 v 221.2 c 0,55.01 45.66,96.12 126.03,96.12 80.38,0 125.41,-41.11 125.41,-96.12 v -52.69 h -83.62 v 52.69 c 0,18.53 -18,30.69 -41.79,30.69 -23.79,0 -39.21,-12.16 -39.21,-30.69 v -221.2 c 0,-21.42 15.42,-30.7 39.21,-30.7 23.79,0 41.79,9.28 41.79,30.7 v 52.7 h 83.62" /><path
         id="path126"
         style="fill:#006e9e;fill-opacity:1;fill-rule:nonzero;stroke:none"
         d="m 1976.85,2850.09 -97.09,179.51 v -179.51 h -86.83 v 405.35 h 86.83 v -174.3 l 97.09,174.3 h 97.74 l -114.46,-195.72 117.69,-209.63 h -100.97" /></g></g></svg>